# xmcd
#
# Track frame offsets:
#	150
#	18910
#	29625
#	41965
#	51260
#	64015
#	76845
#	89595
#	104840
#	117425
#	132155
#	144730
#	158565
#	169435
#	182860
#	196330
#	210340
#
# Disc length: 3006 seconds
#
# Revision: 1
# Processed by: cddbd v1.5.2PL0 Copyright (c) Steve Scherf et al.
# Submitted via: audiograbber 1.83.01
#
DISCID=f90bbc11
DTITLE=Mário Zan - As Mais Lindas Valsas.
DYEAR=1900
DGENRE=Valsas
TTITLE0=Mario Zan - Faixa  1 Clube XV
TTITLE1=Mario Zan - Faixa  2 Baile da Saudade
TTITLE2=Mário Zan - Faixa  3 Desde L`Alma
TTITLE3=Mário Zan - Faixa  4 Graciosa
TTITLE4=Mario Zan - Faixa  5 Luar de Uberlândia
TTITLE5=Mario Zan - Faixa  6 Lagrimas
TTITLE6=Mario Zan - Faixa  7 Namorados
TTITLE7=Mario Zan - Faixa  8 Saudades de Iguape
TTITLE8=Mario Zan  - Faixa  9 Doce é Recordar
TTITLE9=Mario Zan - Faixa 10 Valsa da Saudade
TTITLE10=Mario Zan  - Faixa 11 Teu Esquecimento
TTITLE11=Mario Zan - Faixa 12 Gotas de Orvalho
TTITLE12=Mario Zan - Faixa 13 Que Linda é a Vida
TTITLE13=Mario Zan - Faixa 14 Segredos de Amor
TTITLE14=Mario Zan - Faixa 15 Eterna Saudade
TTITLE15=Mario Zan - Faixa 16 Americana
TTITLE16=Mario Zan - Faixa 17 Dois Amores
EXTD=
EXTT0=
EXTT1=
EXTT2=
EXTT3=
EXTT4=
EXTT5=
EXTT6=
EXTT7=
EXTT8=
EXTT9=
EXTT10=
EXTT11=
EXTT12=
EXTT13=
EXTT14=
EXTT15=
EXTT16=
PLAYORDER=
